<svg width="40" height="40" viewBox="0 0 40 40" fill="none" xmlns="http://www.w3.org/2000/svg">
<rect x="1" y="1" width="38" height="38" rx="6" stroke="white" stroke-width="2"/>
<g clip-path="url(#clip0_12_44)">
<path d="M20.4858 9.01833C21.6867 9 22.8783 9.00917 24.07 9C24.1433 10.4025 24.6475 11.8325 25.6742 12.8225C26.7008 13.84 28.1492 14.3075 29.5608 14.4633V18.1575C28.2408 18.1117 26.9117 17.8367 25.7108 17.2683C25.1883 17.03 24.7025 16.7275 24.2258 16.4158C24.2167 19.0925 24.235 21.7692 24.2075 24.4367C24.1342 25.72 23.7125 26.9942 22.97 28.0483C21.7692 29.8083 19.6883 30.9542 17.5525 30.9908C16.2417 31.0642 14.9308 30.7067 13.8125 30.0467C11.9608 28.9558 10.6592 26.9575 10.4667 24.8125C10.4483 24.3542 10.4392 23.8958 10.4575 23.4467C10.6225 21.705 11.4842 20.0367 12.8225 18.9C14.3442 17.58 16.4708 16.9475 18.46 17.3233C18.4783 18.68 18.4233 20.0367 18.4233 21.3933C17.5158 21.1 16.4525 21.1825 15.655 21.7325C15.0775 22.1083 14.6375 22.6858 14.4083 23.3367C14.2158 23.8042 14.2708 24.3175 14.28 24.8125C14.5 26.3158 15.9483 27.5808 17.4883 27.4433C18.515 27.4342 19.4958 26.8383 20.0275 25.9675C20.2017 25.665 20.3942 25.3533 20.4033 24.9958C20.495 23.355 20.4583 21.7233 20.4675 20.0825C20.4767 16.3883 20.4583 12.7033 20.4858 9.01833Z" fill="white"/>
</g>
<defs>
<clipPath id="clip0_12_44">
<rect width="22" height="22" fill="white" transform="translate(9 9)"/>
</clipPath>
</defs>
</svg>
